#!OML:ASF F:\VICON\USERDATA\INSTALL\Justin_Nancy\Justin_Nancy.ASF
:FULLY-SPECIFIED
:DEGREES
251
root -9.44268 17.5532 0.771456 2.76587 23.9608 -5.12561
lowerback 5.968 1.11614 3.79103
upperback 0.347603 1.84501 2.85594
thorax -2.9647 0.890848 0.664782
lowerneck -16.7403 -3.25554 -9.05675
upperneck 24.2331 -2.85874 3.52405
head 10.7744 -1.68413 2.39236
rclavicle -9.13416e-014 5.96354e-015
rhumerus -29.1079 -8.62967 -74.7897
rradius 32.9438
rwrist 3.99126
rhand -13.3313 12.8456
rfingers 7.12502
rthumb 12.7739 -16.7436
lclavicle -9.13416e-014 5.96354e-015
lhumerus -36.403 15.472 81.5763
lradius 23.9888
lwrist -12.174
lhand -15.7722 24.3993
lfingers 7.12502
lthumb 10.4199 54.1211
rfemur 9.3983 1.79301 26.568
rtibia 6.77098
rfoot -11.2871 -6.19244
rtoes -1.64488
lfemur -33.0584 -2.71775 -15.0298
ltibia 20.6316
lfoot -12.8264 16.7438
ltoes 4.70364
252
root -9.37876 17.5505 0.887627 2.76859 24.3487 -5.15615
lowerback 5.99715 1.09182 3.83526
upperback 0.291123 1.81883 2.81928
thorax -3.03733 0.875516 0.603234
lowerneck -16.5502 -3.1562 -8.82863
upperneck 24.1189 -2.78022 3.44806
head 10.6836 -1.63562 2.33802
rclavicle 1.76918e-014 -3.37934e-014
rhumerus -29.1741 -9.08816 -74.7171
rradius 33.1894
rwrist 3.95851
rhand -13.1885 12.7639
rfingers 7.12502
rthumb 12.9115 -16.8166
lclavicle 1.76918e-014 -3.37934e-014
lhumerus -36.4434 15.8737 81.2944
lradius 23.618
lwrist -12.9221
lhand -15.2439 23.5887
lfingers 7.12502
lthumb 10.9295 53.2843
rfemur 9.65891 1.56808 26.547
rtibia 7.11604
rfoot -11.3671 -6.05291
rtoes -0.693378
lfemur -32.9788 -1.66951 -15.6236
ltibia 20.9541
lfoot -12.2279 15.2443
ltoes 0.827152
253
root -9.31324 17.5356 1.00657 2.70309 24.7829 -5.15456
lowerback 5.88954 1.05538 3.73732
upperback 0.398168 1.75292 2.82889
thorax -2.87045 0.847386 0.676476
lowerneck -16.7761 -3.195 -8.79899
upperneck 24.1424 -2.83981 3.51386
head 10.7401 -1.65085 2.34718
rclavicle -1.03368e-014 1.03368e-014
rhumerus -29.294 -9.47837 -74.673
rradius 33.7624
rwrist 3.96387
rhand -13.1151 12.7559
rfingers 7.12502
rthumb 12.9822 -16.8202
lclavicle -1.03368e-014 1.03368e-014
lhumerus -36.1785 16.8668 80.8319
lradius 22.9407
lwrist -14.1316
lhand -14.8025 22.1188
lfingers 7.12502
lthumb 11.3553 51.7914
rfemur 9.9495 1.28574 26.5089
rtibia 7.69922
rfoot -11.4891 -5.96242
rtoes -0.248366
lfemur -32.9055 -0.693989 -16.271
ltibia 21.3843
lfoot -11.3807 13.6744
ltoes 4.14519
254
root -9.2443 17.5183 1.12354 2.59314 25.0276 -5.15264
lowerback 5.88657 1.06998 3.63134
upperback 0.427759 1.76418 2.83534
thorax -2.84135 0.855036 0.74171
lowerneck -16.7104 -3.2 -8.82345
upperneck 24.1812 -2.87417 3.62053
head 10.7457 -1.6565 2.38615
rclavicle 2.08724e-014 2.3059e-014
rhumerus -29.4927 -9.50045 -74.712
rradius 34.218
rwrist 3.66914
rhand -12.9074 12.4158
rfingers 7.12502
rthumb 13.1825 -17.1474
lclavicle 2.08724e-014 2.3059e-014
lhumerus -36.2146 17.5282 80.4289
lradius 22.494
lwrist -14.9389
lhand -14.5289 21.868
lfingers 7.12502
lthumb 11.6191 51.5258
rfemur 10.2231 1.18496 26.477
rtibia 8.48438
rfoot -11.6297 -5.93803
rtoes -1.07651
lfemur -32.7366 -0.340912 -16.6081
ltibia 21.8961
lfoot -10.557 12.6785
ltoes 3.38639
255
root -9.1668 17.5016 1.24554 2.32586 25.1966 -5.27003
lowerback 5.96498 1.11265 3.70962
upperback 0.479827 1.83099 2.89688
thorax -2.83033 0.888464 0.754993
lowerneck -16.4791 -3.17223 -8.76278
upperneck 24.1579 -2.81456 3.40857
head 10.6849 -1.64979 2.30895
rclavicle -4.2192e-014 -2.46493e-014
rhumerus -29.5366 -9.55749 -74.6102
rradius 34.3533
rwrist 3.49125
rhand -12.9359 12.539
rfingers 7.12502
rthumb 13.155 -17.0261
lclavicle -4.2192e-014 -2.46493e-014
lhumerus -36.3651 17.4657 80.3964
lradius 22.3171
lwrist -15.0295
lhand -14.5955 22.5786
lfingers 7.12502
lthumb 11.5548 52.2401
rfemur 10.4011 1.15309 26.5395
rtibia 9.62367
rfoot -11.8236 -5.97086
rtoes -4.39178
lfemur -32.3303 0.0524733 -16.818
ltibia 22.3538
lfoot -10.0799 11.5999
ltoes 2.68452
256
root -9.08307 17.4897 1.36987 2.01278 25.3726 -5.40907
lowerback 6.16159 1.18753 3.9474
upperback 0.488084 1.95954 2.91702
thorax -2.92329 0.948494 0.628235
lowerneck -16.4308 -3.26286 -8.97866
upperneck 24.2667 -2.90859 3.49901
head 10.7286 -1.70293 2.36608
rclavicle 8.11538e-014 -2.3059e-014
rhumerus -29.8642 -9.8951 -74.3996
rradius 34.7524
rwrist 3.31178
rhand -13.3573 12.86
rfingers 7.12502
rthumb 12.7488 -16.7308
lclavicle 8.11538e-014 -2.3059e-014
lhumerus -36.4192 17.6957 80.2242
lradius 21.8357
lwrist -15.5366
lhand -14.9333 22.6896
lfingers 7.12502
lthumb 11.229 52.3691
rfemur 10.5388 1.11083 26.6156
rtibia 10.8543
rfoot -11.9775 -5.96504
rtoes -6.89345
lfemur -31.7944 0.131048 -16.8749
ltibia 22.7838
lfoot -10.0235 10.7251
ltoes 3.00448
257
root -9.00088 17.4798 1.50742 1.85164 25.6206 -5.24384
lowerback 6.15977 1.17295 3.78479
upperback 0.546653 1.92308 2.83645
thorax -2.86461 0.933022 0.639484
lowerneck -16.5204 -3.1735 -8.93721
upperneck 24.4343 -2.83297 3.67439
head 10.8028 -1.64481 2.43566
rclavicle -6.95746e-016 1.59028e-014
rhumerus -30.0941 -10.2006 -74.4266
rradius 35.1139
rwrist 3.2684
rhand -13.6264 12.8919
rfingers 7.12502
rthumb 12.4893 -16.7149
lclavicle -6.95746e-016 1.59028e-014
lhumerus -36.408 18.4419 79.7212
lradius 21.268
lwrist -16.2542
lhand -15.2419 20.9846
lfingers 7.12502
lthumb 10.9315 50.68
rfemur 10.6831 1.25037 26.5112
rtibia 12.1299
rfoot -11.9178 -6.27126
rtoes -7.87585
lfemur -31.1493 0.0973026 -17.1684
ltibia 23.14
lfoot -10.303 9.74142
ltoes 1.62045
258
root -8.91603 17.4742 1.64892 1.57454 25.8158 -5.10343
lowerback 6.21986 1.17974 3.64112
upperback 0.638046 1.91891 2.75954
thorax -2.80568 0.933565 0.640265
lowerneck -16.437 -3.12909 -8.84815
upperneck 24.3993 -2.81439 3.7171
head 10.7704 -1.62274 2.43918
rclavicle -1.0635e-014 -1.15295e-014
rhumerus -30.4582 -10.2463 -74.5302
rradius 35.5603
rwrist 2.98414
rhand -13.8549 12.9687
rfingers 7.12502
rthumb 12.269 -16.6514
lclavicle -1.0635e-014 -1.15295e-014
lhumerus -36.4569 19.2366 79.1153
lradius 20.7276
lwrist -17.2172
lhand -15.1809 19.8529
lfingers 7.12502
lthumb 10.9902 49.5452
rfemur 10.894 1.51999 26.4799
rtibia 13.5571
rfoot -11.8671 -6.63647
rtoes -8.61334
lfemur -30.2341 -0.0875307 -17.3348
ltibia 23.3339
lfoot -10.8926 8.82689
ltoes 0.917567
259
root -8.82047 17.4697 1.77881 1.5819 25.8623 -4.8482
lowerback 6.04369 1.24843 3.49622
upperback 0.680098 1.98474 2.65454
thorax -2.6636 0.969271 0.612077
lowerneck -16.226 -3.13556 -8.74523
upperneck 24.3367 -2.8499 3.63895
head 10.7059 -1.63904 2.38903
rclavicle 1.98785e-015 2.0276e-014
rhumerus -30.7565 -10.5 -74.529
rradius 35.8748
rwrist 2.69087
rhand -13.7427 13.6021
rfingers 7.12502
rthumb 12.3772 -16.0115
lclavicle 1.98785e-015 2.0276e-014
lhumerus -36.5196 20.596 78.2487
lradius 20.1172
lwrist -18.7404
lhand -14.8649 20.4995
lfingers 7.12502
lthumb 11.295 50.1754
rfemur 10.7784 1.6367 26.1551
rtibia 15.0835
rfoot -11.7633 -6.66312
rtoes -9.38461
lfemur -29.515 -0.435207 -17.635
ltibia 23.3867
lfoot -11.0168 8.10633
ltoes 0.763278
260
root -8.7168 17.4748 1.90913 1.77977 25.7647 -4.48325
lowerback 5.64537 1.4176 3.23923
upperback 0.684748 2.16789 2.551
thorax -2.43859 1.06507 0.644972
lowerneck -15.9038 -3.16592 -8.77552
upperneck 24.1787 -2.9431 3.75294
head 10.5937 -1.67061 2.42248
rclavicle -4.52732e-014 2.78299e-015
rhumerus -31.0317 -10.8278 -74.397
rradius 36.0903
rwrist 2.46783
rhand -13.5295 13.4252
rfingers 7.12502
rthumb 12.5827 -16.1759
lclavicle -4.52732e-014 2.78299e-015
lhumerus -36.6913 20.2329 78.3815
lradius 20.2704
lwrist -18.5119
lhand -14.7044 21.7286
lfingers 7.12502
lthumb 11.4498 51.3959
rfemur 10.5016 1.54741 25.581
rtibia 16.6195
rfoot -11.5567 -6.3548
rtoes -12.0034
lfemur -29.0959 -0.253332 -18.2917
ltibia 23.4322
lfoot -9.88152 7.46448
ltoes -1.14105
261
root -8.61634 17.4833 2.04511 1.84615 25.665 -4.25792
lowerback 5.52423 1.52611 3.00317
upperback 0.569516 2.29553 2.53628
thorax -2.49679 1.12942 0.753715
lowerneck -15.7985 -3.15431 -8.94253
upperneck 24.3568 -2.91984 3.86526
head 10.6422 -1.66446 2.49769
rclavicle 5.36719e-014 3.18055e-014
rhumerus -31.574 -10.8509 -74.3035
rradius 36.3931
rwrist 2.36502
rhand -13.7522 13.2695
rfingers 7.12502
rthumb 12.3681 -16.3447
lclavicle 5.36719e-014 3.18055e-014
lhumerus -37.142 20.3153 78.2525
lradius 20.3296
lwrist -18.4481
lhand -14.6863 21.8361
lfingers 7.12502
lthumb 11.4673 51.5025
rfemur 10.165 1.55297 25.2252
rtibia 18.3676
rfoot -11.2446 -6.24674
rtoes -15.5267
lfemur -28.7391 0.268033 -18.9063
ltibia 23.4046
lfoot -7.9375 7.04058
ltoes -4.69232
262
root -8.51466 17.495 2.17746 1.75834 25.6634 -4.44257
lowerback 5.47977 1.5712 3.32805
upperback 0.417455 2.37748 2.48356
thorax -2.61284 1.16396 0.511099
lowerneck -15.7345 -3.15068 -8.71577
upperneck 24.579 -2.9328 3.67898
head 10.7057 -1.67427 2.3937
rclavicle -3.93097e-014 -1.98785e-014
rhumerus -32.1508 -11.1947 -74.355
rradius 36.7261
rwrist 2.50734
rhand -14.163 13.6871
rfingers 7.12502
rthumb 11.9719 -15.9505
lclavicle -3.93097e-014 -1.98785e-014
lhumerus -37.4628 20.8924 77.612
lradius 20.0327
lwrist -18.9584
lhand -14.7035 21.5445
lfingers 7.12502
lthumb 11.4507 51.2118
rfemur 9.69519 1.45275 25.2571
rtibia 20.2393
rfoot -10.6954 -6.0585
rtoes -17.1033
lfemur -28.4588 0.46478 -18.979
ltibia 23.3747
lfoot -6.32499 7.07915
ltoes -7.25342
263
root -8.4148 17.5145 2.30678 1.91505 25.7667 -4.13115
lowerback 5.42188 1.58395 3.13438
upperback 0.222922 2.38258 2.35436
thorax -2.78329 1.16429 0.484289
lowerneck -15.4048 -3.0623 -8.46212
upperneck 24.7165 -2.85304 3.48465
head 10.6789 -1.64046 2.29608
rclavicle 2.48481e-014 1.59028e-015
rhumerus -32.6041 -11.4092 -74.3665
rradius 36.959
rwrist 2.20397
rhand -13.8167 13.6909
rfingers 7.12502
rthumb 12.3058 -15.927
lclavicle 2.48481e-014 1.59028e-015
lhumerus -37.9856 21.7614 76.7823
lradius 19.7583
lwrist -19.7898
lhand -14.5697 20.9172
lfingers 7.12502
lthumb 11.5798 50.5772
rfemur 9.02773 1.37536 24.8093
rtibia 22.3522
rfoot -10.1569 -5.89345
rtoes -18.1427
lfemur -28.0151 0.0903775 -19.3348
ltibia 23.2647
lfoot -5.85082 7.24293
ltoes -5.94574
